<?xml version="1.0" standalone="no"?>
<!DOCTYPE svg PUBLIC "-//W3C//DTD SVG 20010904//EN"
 "http://www.w3.org/TR/2001/REC-SVG-20010904/DTD/svg10.dtd">
<svg version="1.0" xmlns="http://www.w3.org/2000/svg"
 width="77.000000pt" height="77.000000pt" viewBox="0 0 77.000000 77.000000"
 preserveAspectRatio="xMidYMid meet">

<g transform="translate(0.000000,77.000000) scale(0.100000,-0.100000)"
fill="#000000" stroke="none">
<path d="M345 705 c-14 -13 -25 -33 -25 -45 0 -29 24 -82 44 -99 16 -13 6 -26
-116 -148 l-133 -133 123 -122 122 -123 139 139 139 139 7 79 c6 67 5 82 -10
98 -10 12 -14 26 -10 39 9 29 -26 102 -66 135 -79 67 -171 85 -214 41z m133
-10 c49 -21 109 -80 123 -123 14 -43 5 -51 -25 -22 -23 21 -30 22 -108 16
l-84 -7 -22 39 c-26 47 -28 69 -5 94 20 22 71 23 121 3z m111 -189 l44 -45 -7
-68 -7 -68 -132 -132 -132 -133 -107 107 -108 108 127 127 127 127 25 -18 c29
-21 100 -46 107 -38 3 3 -21 17 -53 32 -49 23 -55 28 -38 35 11 5 40 9 65 9
41 1 50 -3 89 -43z"/>
<path d="M335 396 c-13 -19 -14 -29 -6 -45 25 -45 91 -33 91 17 0 54 -56 72
-85 28z m63 -24 c4 -28 -24 -41 -44 -20 -20 20 -7 50 20 46 13 -2 22 -12 24
-26z"/>
<path d="M230 290 c0 -6 55 -10 145 -10 90 0 145 4 145 10 0 6 -55 10 -145 10
-90 0 -145 -4 -145 -10z"/>
<path d="M335 236 c-13 -19 -14 -29 -6 -45 25 -45 91 -33 91 17 0 54 -56 72
-85 28z m63 -24 c4 -28 -24 -41 -44 -20 -20 20 -7 50 20 46 13 -2 22 -12 24
-26z"/>
</g>
</svg>
