<?xml version="1.0" standalone="no"?>
<!DOCTYPE svg PUBLIC "-//W3C//DTD SVG 20010904//EN"
 "http://www.w3.org/TR/2001/REC-SVG-20010904/DTD/svg10.dtd">
<svg version="1.0" xmlns="http://www.w3.org/2000/svg"
 width="77.000000pt" height="77.000000pt" viewBox="0 0 77.000000 77.000000"
 preserveAspectRatio="xMidYMid meet">

<g transform="translate(0.000000,77.000000) scale(0.100000,-0.100000)"
fill="#000000" stroke="none">
<path d="M150 678 c-62 -32 -102 -92 -108 -162 -8 -93 6 -115 176 -288 85 -87
161 -158 167 -158 6 0 82 71 167 158 170 173 184 195 176 288 -12 144 -170
229 -299 161 l-44 -24 -44 24 c-58 31 -131 31 -191 1z m199 -27 c30 -21 36
-23 55 -11 56 36 79 42 136 38 128 -9 204 -135 155 -256 -10 -22 -73 -95 -163
-184 l-147 -148 -143 143 c-79 78 -152 159 -163 179 -24 47 -24 118 0 166 38
74 92 104 176 100 44 -3 70 -10 94 -27z"/>
<path d="M225 619 c-48 -13 -96 -69 -102 -119 -4 -31 -3 -41 5 -36 7 4 12 17
12 29 0 51 71 117 124 117 9 0 16 5 16 10 0 12 -14 12 -55 -1z"/>
</g>
</svg>
