<?xml version="1.0" standalone="no"?>
<!DOCTYPE svg PUBLIC "-//W3C//DTD SVG 20010904//EN"
 "http://www.w3.org/TR/2001/REC-SVG-20010904/DTD/svg10.dtd">
<svg version="1.0" xmlns="http://www.w3.org/2000/svg"
 width="77.000000pt" height="77.000000pt" viewBox="0 0 77.000000 77.000000"
 preserveAspectRatio="xMidYMid meet">

<g transform="translate(0.000000,77.000000) scale(0.100000,-0.100000)"
fill="#000000" stroke="none">
<path d="M315 710 c-10 -31 4 -58 31 -62 38 -5 30 -22 -14 -30 -22 -4 -55 -14
-72 -23 -31 -16 -35 -16 -66 1 -32 17 -34 17 -53 -1 -25 -21 -27 -42 -6 -65
12 -14 11 -22 -13 -70 -38 -77 -38 -182 1 -256 112 -217 412 -217 524 0 39 75
39 181 0 256 -25 48 -26 54 -12 70 21 23 19 43 -6 65 -19 18 -21 18 -53 1 -31
-17 -35 -17 -66 -1 -17 9 -49 19 -71 23 -44 8 -53 25 -15 30 27 4 41 31 31 62
-5 17 -15 20 -70 20 -55 0 -65 -3 -70 -20z m125 -20 c0 -18 -7 -20 -55 -20
-48 0 -55 2 -55 20 0 18 7 20 55 20 48 0 55 -2 55 -20z m55 -109 c132 -58 196
-209 146 -342 -90 -237 -422 -237 -512 0 -84 223 146 438 366 342z m-305 -6
c11 -13 10 -18 -6 -30 -16 -12 -21 -12 -33 0 -12 11 -12 17 -1 29 16 20 24 20
40 1z m430 -1 c11 -12 11 -18 -1 -29 -12 -12 -17 -12 -33 0 -16 12 -17 17 -6
30 16 19 24 19 40 -1z"/>
<path d="M335 561 c-51 -13 -92 -39 -127 -81 -163 -189 51 -462 279 -356 142
66 174 251 64 369 -51 56 -147 86 -216 68z m46 -39 c0 -13 2 -12 9 5 8 18 13
20 43 13 56 -12 125 -60 87 -60 -5 0 -10 -4 -10 -10 0 -5 10 -9 23 -7 17 1 27
-8 45 -43 26 -51 28 -80 7 -80 -8 0 -15 -4 -15 -10 0 -5 7 -10 15 -10 19 0 19
-21 0 -67 -23 -54 -35 -66 -52 -52 -18 15 -29 4 -14 -14 14 -17 2 -29 -52 -52
-49 -20 -77 -19 -78 3 -1 16 -2 16 -6 0 -6 -23 -37 -23 -89 1 -45 21 -60 36
-44 46 19 12 11 26 -9 16 -22 -12 -33 -2 -56 52 -19 46 -19 67 0 67 8 0 15 5
15 10 0 6 -7 10 -15 10 -21 0 -19 29 8 80 17 35 27 44 45 43 23 -3 30 11 11
23 -23 14 99 70 124 57 4 -2 7 -12 8 -21z"/>
<path d="M421 386 c-24 -24 -42 -49 -40 -55 2 -6 29 13 59 44 31 32 48 55 39
55 -8 0 -34 -20 -58 -44z"/>
</g>
</svg>
