<?xml version="1.0" standalone="no"?>
<!DOCTYPE svg PUBLIC "-//W3C//DTD SVG 20010904//EN"
 "http://www.w3.org/TR/2001/REC-SVG-20010904/DTD/svg10.dtd">
<svg version="1.0" xmlns="http://www.w3.org/2000/svg"
 width="77.000000pt" height="77.000000pt" viewBox="0 0 77.000000 77.000000"
 preserveAspectRatio="xMidYMid meet">

<g transform="translate(0.000000,77.000000) scale(0.100000,-0.100000)"
fill="#000000" stroke="none">
<path d="M418 698 c-8 -7 -32 -44 -52 -82 -65 -120 -107 -162 -122 -121 -5 12
-26 15 -105 15 l-99 0 0 -225 0 -225 99 0 c81 0 100 3 103 15 3 13 31 16 185
18 151 2 185 5 198 18 10 10 22 55 31 120 14 90 19 108 45 134 33 35 36 60 13
93 -14 21 -23 22 -130 22 -85 0 -116 3 -120 13 -2 7 7 40 22 73 14 32 26 69
26 82 1 48 -57 79 -94 50z m60 -20 c18 -18 15 -47 -14 -115 -38 -90 -35 -93
93 -93 152 0 185 -26 125 -95 -24 -27 -31 -47 -41 -126 -20 -146 -8 -139 -221
-139 l-180 0 0 180 0 180 29 0 c23 0 35 10 63 53 20 29 46 73 58 98 12 24 27
50 32 57 13 15 40 16 56 0z m-258 -393 l0 -205 -80 0 -80 0 0 205 0 205 80 0
80 0 0 -205z"/>
</g>
</svg>
