<?xml version="1.0" standalone="no"?>
<!DOCTYPE svg PUBLIC "-//W3C//DTD SVG 20010904//EN"
 "http://www.w3.org/TR/2001/REC-SVG-20010904/DTD/svg10.dtd">
<svg version="1.0" xmlns="http://www.w3.org/2000/svg"
 width="77.000000pt" height="77.000000pt" viewBox="0 0 77.000000 77.000000"
 preserveAspectRatio="xMidYMid meet">

<g transform="translate(0.000000,77.000000) scale(0.100000,-0.100000)"
fill="#000000" stroke="none">
<path d="M45 637 c-3 -7 -4 -125 -3 -262 l3 -250 340 0 340 0 0 260 0 260
-338 3 c-267 2 -339 0 -342 -11z m665 -47 l0 -40 -325 0 -325 0 0 40 0 40 325
0 325 0 0 -40z m0 -255 l0 -195 -325 0 -325 0 0 195 0 195 325 0 325 0 0 -195z"/>
<path d="M520 590 c0 -5 6 -10 14 -10 8 0 18 5 21 10 3 6 -3 10 -14 10 -12 0
-21 -4 -21 -10z"/>
<path d="M588 588 c9 -9 15 -9 24 0 9 9 7 12 -12 12 -19 0 -21 -3 -12 -12z"/>
<path d="M648 588 c9 -9 15 -9 24 0 9 9 7 12 -12 12 -19 0 -21 -3 -12 -12z"/>
<path d="M306 458 l-68 -32 5 -54 c8 -73 44 -140 94 -175 46 -33 65 -31 113
10 42 35 71 96 77 162 l5 56 -66 33 c-37 17 -72 32 -79 31 -6 0 -43 -14 -81
-31z m145 -14 c58 -26 59 -27 59 -68 0 -22 -9 -59 -19 -81 -20 -44 -82 -105
-108 -105 -29 0 -99 83 -111 133 -21 83 -18 91 46 120 31 14 61 26 66 26 5 1
35 -11 67 -25z"/>
<path d="M406 345 l-39 -47 -23 29 c-15 18 -23 22 -23 13 0 -8 10 -28 23 -43
l23 -28 42 50 c24 28 41 56 39 62 -2 6 -21 -10 -42 -36z"/>
</g>
</svg>
